<svg width="42" height="42" viewBox="0 0 42 42" fill="none" xmlns="http://www.w3.org/2000/svg">
<path d="M21 0C9.47375 0 0.0940753 9.38 0.000745105 20.86C-0.04592 26.46 2.10067 31.78 6.0672 35.7467C9.98707 39.76 15.2602 41.9533 20.86 42H21C32.5263 42 41.906 32.62 41.9993 21.14C42.0926 9.56667 32.713 0.0933333 21 0ZM21 39.1533H20.86C16.0069 39.1067 11.4804 37.1933 8.02714 33.74C4.66725 30.3333 2.80065 25.76 2.84731 20.9067C2.89398 10.9667 11.0604 2.84667 21.14 2.84667C31.173 2.89333 39.2461 11.1067 39.1994 21.14C39.1061 31.08 30.9397 39.1533 21 39.1533Z" fill="#A9A9A9"/>
<path d="M29.2893 22.9636C28.7327 22.4061 27.9442 22.0808 27.1557 22.0808C26.3208 22.0808 25.5787 22.4061 25.0221 22.9636C24.5405 23.4461 23.7773 23.5127 23.2454 23.0864C21.9907 22.0807 20.8474 20.9353 19.8434 19.6784C19.4177 19.1453 19.4843 18.3818 19.9663 17.899C20.5229 17.3414 20.8476 16.5515 20.8476 15.7616C20.8476 14.9253 20.5229 14.1818 19.9663 13.6242L17.2297 10.8828C16.6731 10.3253 15.8846 10 15.0961 10C14.2612 10 13.5191 10.3253 12.9625 10.8828L12.0348 11.8121C10.2259 13.6242 8.69522 16.7838 11.7101 21.6162C13.751 24.9152 17.0442 27.796 18.8067 29.2364C20.8012 30.8626 22.8885 32.0242 25.0221 32.6747C25.7642 32.9071 26.46 33 27.063 33C28.5936 33 29.8459 32.396 31.1911 31.0485L32.1187 30.1192C32.6753 29.5616 33 28.7717 33 27.9818C33 27.1455 32.6753 26.402 32.1187 25.8444L29.2893 22.9636ZM30.1706 28.1212L29.243 29.0505C28.2225 30.0727 27.5732 30.2121 27.0166 30.2121C26.6455 30.2121 26.2281 30.1192 25.7642 29.9798C24.0017 29.4222 22.1927 28.4465 20.4302 27.0525C17.6008 24.7758 15.2816 22.3131 13.9365 20.1293C12.8697 18.4101 11.7101 15.8545 13.8901 13.6707L13.9365 13.6242L14.8178 12.7414C14.9106 12.6485 15.0033 12.6485 15.0497 12.6485C15.224 12.6485 15.3444 12.8043 15.4675 12.9276L18.0182 15.4828C18.111 15.5758 18.111 15.6687 18.111 15.7152C18.111 15.8896 17.9554 16.0104 17.8322 16.1339L16.3948 17.5737C15.9396 18.0298 15.8865 18.7096 16.1916 19.2178C16.2031 19.237 16.2173 19.2544 16.233 19.2703C16.2481 19.2853 16.2615 19.302 16.2732 19.3198C18.1666 22.2263 20.6096 24.6736 23.511 26.5704C23.5288 26.582 23.5454 26.5955 23.5605 26.6106C23.5763 26.6264 23.5936 26.6405 23.6128 26.652C24.1218 26.9577 24.8443 26.9045 25.254 26.4485L26.8774 24.8222C26.9702 24.7293 27.063 24.7293 27.1093 24.7293C27.2836 24.7293 27.404 24.8851 27.5271 25.0084L30.0779 27.5636C30.1706 27.6566 30.1706 27.7495 30.1706 27.796C30.1706 27.8424 30.2634 28.0283 30.1706 28.1212Z" fill="#A9A9A9"/>
</svg>
