<svg width="61" height="61" viewBox="0 0 61 61" fill="none" xmlns="http://www.w3.org/2000/svg">
<g id="Telegram svg">
<rect id="Rectangle 829" x="0.166992" y="0.573975" width="60" height="60" rx="10" fill="black"/>
<path id="Vector" d="M45.5627 16.9589C45.0169 16.5137 44.1595 16.45 43.2731 16.7923H43.2716C42.3393 17.1521 16.8808 27.6549 15.8444 28.084C15.6559 28.147 14.0096 28.7378 14.1792 30.0538C14.3306 31.2403 15.6537 31.7317 15.8153 31.7884L22.2877 33.9199C22.7171 35.2947 24.3 40.367 24.6501 41.4506C24.8684 42.1261 25.2243 43.0137 25.8481 43.1964C26.3954 43.3994 26.9398 43.2139 27.292 42.9479L31.2491 39.4178L37.637 44.2093L37.7891 44.2968C38.2228 44.4816 38.6384 44.574 39.0351 44.574C39.3415 44.574 39.6355 44.5187 39.9164 44.4081C40.8735 44.0301 41.2563 43.153 41.2964 43.0536L46.0678 19.1996C46.3589 17.9256 45.9543 17.2774 45.5627 16.9589ZM27.9958 34.7725L25.8124 40.3726L23.629 33.3725L40.3684 21.4725L27.9958 34.7725Z" fill="white"/>
</g>
</svg>
