<svg width="61" height="61" viewBox="0 0 61 61" fill="none" xmlns="http://www.w3.org/2000/svg">
<g id="Viber svg">
<rect id="Rectangle 830" x="0.166992" y="0.573975" width="60" height="60" rx="10" fill="black"/>
<path id="Vector" d="M45.2397 21.302C44.6444 19.18 43.4659 17.5037 41.7397 16.3178C39.5611 14.8169 37.0552 14.2879 34.8915 13.9639C31.8975 13.5181 29.1862 13.4557 26.5999 13.7708C24.1773 14.068 22.3529 14.5405 20.6893 15.3044C17.4274 16.8023 15.4691 19.2245 14.8709 22.5028C14.5792 24.0958 14.3828 25.5343 14.2697 26.9074C14.0078 30.0816 14.2459 32.8902 14.9959 35.4938C15.728 38.032 17.0048 39.8449 18.9006 41.0367C19.3827 41.3399 20.0018 41.5598 20.6 41.7709C20.9393 41.8897 21.2696 42.0056 21.5404 42.1334C21.7904 42.2494 21.7904 42.2702 21.7875 42.4782C21.7666 44.2823 21.7875 47.8191 21.7875 47.8191L21.7934 48.574H23.1506L23.3708 48.36C23.5166 48.2233 26.8797 44.9777 28.0791 43.67L28.2428 43.4887C28.4481 43.251 28.4481 43.251 28.6594 43.248C30.2785 43.2153 31.9332 43.1529 33.5761 43.0637C35.5671 42.9567 37.8737 42.7635 40.0463 41.86C42.0343 41.0308 43.4867 39.7142 44.3587 37.9487C45.2694 36.106 45.8081 34.1118 46.0105 31.85C46.3676 27.8733 46.1147 24.4227 45.2397 21.302ZM38.079 36.7658C37.579 37.5772 36.835 38.1419 35.957 38.5075C35.3141 38.775 34.6594 38.7185 34.0255 38.451C28.719 36.2071 24.5553 32.6733 21.8053 27.591C21.2369 26.5448 20.844 25.4035 20.3916 24.2979C20.2994 24.072 20.3053 23.8045 20.2637 23.5549C20.3024 21.7687 21.6744 20.7611 23.0613 20.458C23.591 20.3391 24.0613 20.5263 24.4541 20.9038C25.5434 21.9381 26.4035 23.1418 27.0523 24.4911C27.335 25.0825 27.2071 25.6056 26.7249 26.0455C26.6237 26.1376 26.5196 26.2209 26.4095 26.3041C25.3083 27.1303 25.1476 27.7574 25.7339 29.0027C26.7339 31.1218 28.3946 32.5455 30.5404 33.4282C31.1059 33.66 31.6386 33.5441 32.0701 33.0864C32.1297 33.027 32.1951 32.9675 32.2368 32.8962C33.082 31.4874 34.3112 31.6271 35.4451 32.4296C36.1891 32.9586 36.9124 33.5173 37.6475 34.0553C38.7695 34.8786 38.7606 35.6513 38.079 36.7658ZM31.0404 22.7049C30.7904 22.7049 30.5404 22.7257 30.2934 22.7673C29.8767 22.8356 29.4868 22.5563 29.4154 22.1402C29.3469 21.7271 29.6267 21.3347 30.0434 21.2664C30.3707 21.2099 30.707 21.1832 31.0404 21.1832C34.3409 21.1832 37.0254 23.864 37.0254 27.16C37.0254 27.4959 36.9987 27.8317 36.9421 28.1557C36.8796 28.5272 36.5582 28.7917 36.1921 28.7917C36.1505 28.7917 36.1088 28.7887 36.0641 28.7798C35.6505 28.7115 35.3707 28.3192 35.4391 27.906C35.4808 27.6623 35.5016 27.4127 35.5016 27.16C35.5016 24.7051 33.4987 22.7049 31.0404 22.7049ZM34.7397 27.27C34.7397 27.6891 34.3975 28.0309 33.9779 28.0309C33.5582 28.0309 33.216 27.6891 33.216 27.27C33.216 26.0128 32.1892 24.9874 30.9303 24.9874C30.5106 24.9874 30.1684 24.6456 30.1684 24.2266C30.1684 23.8075 30.5106 23.4657 30.9303 23.4657C33.0314 23.4657 34.7397 25.1717 34.7397 27.27ZM39.0909 28.9611C39.0105 29.3148 38.6951 29.5526 38.3469 29.5526C38.2903 29.5526 38.2338 29.5466 38.1772 29.5347C37.7665 29.4396 37.5106 29.0325 37.6028 28.6223C37.7129 28.1379 37.7695 27.6356 37.7695 27.1303C37.7695 23.433 34.7546 20.4223 31.0523 20.4223C30.5463 20.4223 30.0434 20.4788 29.5582 20.5887C29.1475 20.6838 28.7398 20.4253 28.6475 20.0151C28.5523 19.605 28.8112 19.1978 29.2219 19.1057C29.8172 18.9689 30.4332 18.9006 31.0523 18.9006C35.5969 18.9006 39.2933 22.5919 39.2933 27.1303C39.2933 27.7485 39.2248 28.3637 39.0909 28.9611Z" fill="white"/>
</g>
</svg>
