<svg width="61" height="61" viewBox="0 0 61 61" fill="none" xmlns="http://www.w3.org/2000/svg">
<rect x="0.166992" y="0.573975" width="60" height="60" rx="7" fill="white"/>
<path d="M53.0241 0.573975H7.30985C3.36699 0.573975 0.166992 3.77397 0.166992 7.71683V53.4311C0.166992 57.374 3.36699 60.574 7.30985 60.574H53.0241C56.967 60.574 60.167 57.374 60.167 53.4311V7.71683C60.167 3.77397 56.967 0.573975 53.0241 0.573975ZM48.3384 42.0025L43.0099 41.9883C43.0099 41.9883 42.8956 42.0025 42.7099 42.0025C42.2813 42.0025 41.3956 41.8883 40.3527 41.174C38.4813 39.874 36.6956 36.6454 35.2813 36.6454C35.1813 36.6454 35.0956 36.6597 35.0098 36.6883C33.7813 37.074 33.4099 38.3025 33.4099 39.8025C33.4099 40.3311 33.0384 40.574 32.0384 40.574H29.2813C26.1956 40.574 23.2099 40.5025 19.8527 36.8311C14.9099 31.4168 10.2813 21.7883 10.2813 21.7883C10.2813 21.7883 10.0241 21.2311 10.2956 20.9025C10.5527 20.6025 11.1527 20.574 11.3813 20.574C11.4384 20.574 11.467 20.574 11.467 20.574H17.1813C17.1813 20.574 17.7099 20.674 18.0956 20.9597C18.4241 21.2025 18.5956 21.6454 18.5956 21.6454C18.5956 21.6454 19.567 23.5311 20.7813 25.6597C22.8241 29.174 23.9241 30.3454 24.7099 30.3454C24.8384 30.3454 24.967 30.3168 25.0956 30.2454C26.267 29.6025 25.9241 24.4025 25.9241 24.4025C25.9241 24.4025 25.9384 22.5168 25.3241 21.6883C24.8527 21.0311 23.9527 20.8454 23.5527 20.7883C23.2384 20.7454 23.7527 20.0025 24.4384 19.6597C25.3241 19.2311 26.7956 19.1454 28.567 19.1454H29.4241C31.0956 19.174 31.1384 19.3454 31.7956 19.5025C33.767 19.974 33.0956 21.8168 33.0956 26.2311C33.0956 27.6454 32.8384 29.6311 33.8527 30.3025C33.9241 30.3454 34.0241 30.374 34.1527 30.374C34.8099 30.374 36.2241 29.5311 38.4813 25.7168C39.7384 23.5454 40.7099 21.3883 40.7099 21.3883C40.7099 21.3883 40.9241 21.0025 41.2527 20.8025C41.567 20.6168 41.567 20.6168 41.9813 20.6168H42.0241C42.4813 20.6168 47.0241 20.574 48.0241 20.574H48.1384C49.0956 20.574 49.967 20.5883 50.1241 21.174C50.3527 22.0597 49.4241 23.6454 46.9813 26.9311C42.9527 32.3168 42.4956 31.9168 45.8384 35.0311C49.0384 38.0025 49.6956 39.4454 49.8098 39.6311C51.1384 41.8311 48.3384 42.0025 48.3384 42.0025Z" fill="black"/>
</svg>
