<svg width="61" height="61" viewBox="0 0 61 61" fill="none" xmlns="http://www.w3.org/2000/svg">
<rect x="0.166992" y="0.573975" width="60" height="60" rx="7" fill="black"/>
<path d="M29.6671 10.574C18.915 10.574 10.1671 19.3218 10.1671 30.074C10.1671 33.4314 11.0344 36.7328 12.6792 39.6459L10.1985 48.4972C10.1171 48.788 10.1959 49.1 10.4062 49.3162C10.5681 49.4833 10.7886 49.574 11.0149 49.574C11.0828 49.574 11.1514 49.5655 11.2184 49.5494L20.4563 47.2611C23.277 48.7753 26.4538 49.574 29.6671 49.574C40.4191 49.574 49.167 40.8261 49.167 30.074C49.167 19.3218 40.4191 10.574 29.6671 10.574ZM39.4764 36.9549C39.0592 38.1097 37.0584 39.1635 36.0969 39.3051C35.2339 39.4314 34.1419 39.4857 32.943 39.1093C32.2165 38.8803 31.2839 38.5768 30.0893 38.0673C25.0676 35.9257 21.7882 30.9328 21.5373 30.603C21.2872 30.2732 19.4932 27.923 19.4932 25.4906C19.4932 23.0582 20.7861 21.8619 21.2456 21.3668C21.7051 20.8717 22.2469 20.7479 22.5809 20.7479C22.915 20.7479 23.2482 20.7521 23.5407 20.7657C23.8484 20.781 24.2613 20.6495 24.6674 21.6144C25.0846 22.6046 26.0858 25.037 26.2096 25.2855C26.3351 25.533 26.4182 25.8221 26.252 26.1519C26.0858 26.4817 26.0028 26.6878 25.7518 26.9769C25.5009 27.266 25.2262 27.6212 25.0006 27.8433C24.7497 28.0901 24.4894 28.3571 24.781 28.8523C25.0727 29.3474 26.0774 30.9659 27.5661 32.2766C29.478 33.9604 31.0914 34.4827 31.5916 34.7302C32.0918 34.9778 32.3843 34.9363 32.676 34.6065C32.9676 34.2758 33.9274 33.1626 34.2606 32.6683C34.5938 32.174 34.9278 32.2554 35.3873 32.4208C35.8468 32.5852 38.3081 33.7807 38.8083 34.0282C39.3085 34.2758 39.6425 34.3996 39.768 34.6056C39.8935 34.8108 39.8935 35.801 39.4764 36.9549Z" fill="white"/>
</svg>
